<?xml version="1.0" standalone="no"?>
<!DOCTYPE svg PUBLIC "-//W3C//DTD SVG 20010904//EN"
 "http://www.w3.org/TR/2001/REC-SVG-20010904/DTD/svg10.dtd">
<svg version="1.0" xmlns="http://www.w3.org/2000/svg"
 width="512.000000pt" height="512.000000pt" viewBox="0 0 512.000000 512.000000"
 preserveAspectRatio="xMidYMid meet">
<metadata>
Created by potrace 1.14, written by Peter Selinger 2001-2017
</metadata>
<g transform="translate(0.000000,512.000000) scale(0.100000,-0.100000)"
fill="#000000" stroke="none">
<path d="M2400 5109 c-873 -54 -1651 -547 -2079 -1317 -396 -713 -420 -1605
-64 -2339 66 -137 160 -293 239 -399 33 -44 62 -86 65 -94 15 -34 205 -233
304 -319 143 -124 236 -192 385 -281 519 -313 1137 -427 1750 -324 546 92
1085 389 1457 803 52 58 98 113 102 121 3 8 32 50 65 94 550 736 645 1776 239
2613 -234 482 -602 872 -1071 1132 -416 231 -907 340 -1392 310z m946 -1830
l773 -654 1 -832 0 -833 -200 0 -200 0 0 599 0 600 51 3 c59 3 82 25 63 56
-10 16 -42 17 -434 17 -392 0 -424 -1 -434 -17 -19 -31 4 -53 63 -56 l51 -3 0
-600 0 -599 -934 0 -934 0 15 40 c12 30 24 42 49 50 91 30 109 154 29 206 -13
8 -27 28 -30 44 -9 43 -41 77 -83 91 -20 6 -52 25 -70 40 -18 16 -53 34 -77
40 l-45 11 0 572 1 571 777 658 c427 361 780 656 786 654 5 -2 357 -298 782
-658z"/>
<path d="M2445 3507 c-112 -37 -199 -114 -249 -217 -29 -60 -31 -73 -31 -170
0 -97 2 -110 31 -170 40 -83 111 -154 194 -194 60 -29 73 -31 170 -31 97 0
110 2 170 31 83 40 154 111 194 194 29 60 31 73 31 170 0 97 -2 110 -31 170
-40 83 -111 154 -194 193 -55 27 -79 32 -155 34 -55 2 -105 -2 -130 -10z"/>
<path d="M1372 2468 c-15 -15 -15 -41 0 -56 7 -7 34 -12 60 -12 l48 0 0 -399
0 -400 -51 -3 c-59 -3 -82 -25 -63 -55 10 -17 42 -18 434 -18 392 0 424 1 434
18 19 30 -4 52 -63 55 l-51 3 0 399 0 399 51 3 c59 3 82 25 63 56 -10 16 -44
17 -430 20 -318 2 -423 -1 -432 -10z"/>
</g>
</svg>
